<svg xmlns="http://www.w3.org/2000/svg" xmlns:xlink="http://www.w3.org/1999/xlink" width="224.88" viewBox="0 0 224.88 150" height="150" version="1.0"><defs><g id="j"><path d="M 4.75 -4.03125 C 5.125 -3.988281 5.429688 -3.847656 5.671875 -3.609375 C 5.921875 -3.378906 6.078125 -3.078125 6.140625 -2.703125 C 6.222656 -2.160156 6.078125 -1.707031 5.703125 -1.34375 C 5.328125 -0.988281 4.738281 -0.75 3.9375 -0.625 L 0.71875 -0.109375 L -0.265625 -6.28125 L 2.765625 -6.765625 C 3.515625 -6.890625 4.113281 -6.835938 4.5625 -6.609375 C 5.019531 -6.390625 5.289062 -6.03125 5.375 -5.53125 C 5.414062 -5.238281 5.378906 -4.960938 5.265625 -4.703125 C 5.160156 -4.441406 4.988281 -4.21875 4.75 -4.03125 Z M 1.34375 -5.453125 L 1.578125 -3.984375 L 3 -4.203125 C 3.351562 -4.265625 3.609375 -4.367188 3.765625 -4.515625 C 3.921875 -4.671875 3.976562 -4.867188 3.9375 -5.109375 C 3.90625 -5.347656 3.789062 -5.515625 3.59375 -5.609375 C 3.394531 -5.710938 3.117188 -5.734375 2.765625 -5.671875 Z M 3.65625 -1.6875 C 4.019531 -1.75 4.285156 -1.851562 4.453125 -2 C 4.628906 -2.15625 4.695312 -2.363281 4.65625 -2.625 C 4.570312 -3.132812 4.15625 -3.332031 3.40625 -3.21875 L 1.734375 -2.953125 L 1.984375 -1.421875 Z M 3.65625 -1.6875"/></g><g id="k"><path d="M 5.71875 0.125 L 5.453125 1.25 L 0.71875 0.171875 L 2.109375 -5.921875 L 6.71875 -4.875 L 6.46875 -3.75 L 3.265625 -4.484375 L 2.953125 -3.15625 L 5.78125 -2.5 L 5.53125 -1.40625 L 2.703125 -2.0625 L 2.390625 -0.640625 Z M 5.71875 0.125"/></g><g id="l"><path d="M 6.234375 0.375 C 6.460938 0.675781 6.582031 0.992188 6.59375 1.328125 C 6.601562 1.660156 6.5 1.988281 6.28125 2.3125 C 5.976562 2.75 5.566406 2.96875 5.046875 2.96875 C 4.523438 2.96875 3.929688 2.738281 3.265625 2.28125 L 0.609375 0.421875 L 4.1875 -4.703125 L 6.6875 -2.953125 C 7.3125 -2.515625 7.707031 -2.054688 7.875 -1.578125 C 8.050781 -1.109375 7.992188 -0.671875 7.703125 -0.265625 C 7.535156 -0.015625 7.320312 0.164062 7.0625 0.28125 C 6.800781 0.394531 6.523438 0.425781 6.234375 0.375 Z M 4.75 -3 L 3.90625 -1.78125 L 5.078125 -0.953125 C 5.367188 -0.753906 5.625 -0.648438 5.84375 -0.640625 C 6.070312 -0.640625 6.253906 -0.742188 6.390625 -0.953125 C 6.535156 -1.148438 6.566406 -1.351562 6.484375 -1.5625 C 6.398438 -1.769531 6.210938 -1.972656 5.921875 -2.171875 Z M 3.796875 1.328125 C 4.109375 1.535156 4.378906 1.644531 4.609375 1.65625 C 4.835938 1.664062 5.023438 1.5625 5.171875 1.34375 C 5.472656 0.914062 5.3125 0.484375 4.6875 0.046875 L 3.3125 -0.921875 L 2.421875 0.359375 Z M 3.796875 1.328125"/></g><g id="m"><path d="M 4.03125 4.0625 L 3.0625 4.6875 L 0.40625 0.609375 L 5.640625 -2.8125 L 8.21875 1.15625 L 7.25 1.796875 L 5.46875 -0.953125 L 4.328125 -0.21875 L 5.90625 2.203125 L 4.96875 2.828125 L 3.390625 0.40625 L 2.171875 1.203125 Z M 8.65625 -1.46875 L 9.484375 -0.203125 L 7.515625 -0.859375 L 6.90625 -1.78125 Z M 8.65625 -1.46875"/></g><g id="a"><path d="M 2.683594 -1.398438 C 3.308594 -1.546875 3.734375 -1.742188 3.734375 -1.742188 C 6.863281 -9.566406 23.820312 -51.085938 29.980469 -52.558594 C 34.441406 -53.625 19.183594 -6.195312 30.828125 -2.46875 C 31.339844 -2.308594 31.828125 -2.238281 32.1875 -2.324219 C 32.632812 -2.429688 32.636719 -2.808594 31.460938 -3.375 C 26.835938 -5.761719 35.078125 -35.191406 36.285156 -48.6875 C 36.457031 -50.332031 36.566406 -52.246094 35.980469 -53.898438 C 35.3125 -55.910156 33.675781 -57.21875 31 -56.578125 C 21.003906 -54.183594 8.050781 -21.175781 4.390625 -11.617188 C 7.761719 -23.558594 10.703125 -36.90625 12.980469 -48.679688 C 13.082031 -49.835938 10.464844 -50.910156 8.769531 -50.503906 C 8.054688 -50.332031 7.582031 -49.9375 7.445312 -49.335938 C 6.742188 -45.960938 0.609375 -16.375 -0.894531 -6.109375 C -1.835938 -0.976562 0.988281 -0.992188 2.683594 -1.398438 Z M 2.683594 -1.398438"/></g><g id="b"><path d="M 2.863281 -1.441406 C 5.453125 -2.058594 9.472656 -12.457031 10.234375 -14.808594 L 10.273438 -14.253906 C 10.46875 -11.847656 10.996094 -8.859375 13.007812 -7.546875 C 13.761719 -7.160156 14.558594 -6.976562 15.183594 -7.125 C 19.914062 -8.257812 24.257812 -21.65625 25.445312 -24.582031 C 25.09375 -25.253906 24.652344 -25.523438 24.207031 -25.417969 C 24.117188 -25.394531 24.050781 -25.285156 24.050781 -25.285156 C 23.753906 -24.554688 18.703125 -11.742188 16.382812 -11.183594 C 16.207031 -11.144531 16.003906 -11.1875 15.875 -11.347656 C 15.589844 -11.75 15.464844 -12.664062 15.390625 -14.15625 C 15.445312 -17.472656 16.84375 -23.46875 17.164062 -24.488281 C 17.648438 -26.019531 15.222656 -26.289062 13.707031 -25.925781 C 11.742188 -25.457031 10.769531 -21.636719 10.507812 -19.96875 C 8.292969 -14.628906 4.710938 -5.941406 3.441406 -5.730469 C 1.316406 -6.730469 6.257812 -24.332031 7.929688 -26.808594 C 7.296875 -28.261719 5.617188 -29.367188 4.1875 -29.027344 C 3.566406 -28.875 2.914062 -28.4375 2.570312 -27.507812 C -0.316406 -21.4375 -4.980469 -2.675781 1.4375 -1.476562 C 1.929688 -1.40625 2.417969 -1.332031 2.863281 -1.441406 Z M 2.863281 -1.441406"/></g><g id="c"><path d="M -9.875 -29.4375 L -9.695312 -29.476562 C -5.429688 -30.972656 -1.164062 -32.464844 3.234375 -33.800781 C 0.742188 -22.917969 -1.253906 -8.003906 -1.320312 -1.570312 C -1.453125 0.628906 -0.84375 6.335938 2.390625 5.65625 C 1.460938 -3.746094 5.601562 -23.515625 9.398438 -35.652344 C 13.191406 -36.746094 16.878906 -37.910156 20.472656 -39.054688 C 22.816406 -39.898438 22.839844 -44.152344 20.984375 -43.613281 C 17.789062 -42.375 14.347656 -40.988281 10.863281 -39.777344 C 11.644531 -42.039062 12.460938 -43.742188 13.164062 -44.761719 C 13.839844 -45.867188 11.949219 -47.867188 9.359375 -47.246094 C 8.824219 -47.117188 8.308594 -46.902344 7.660156 -46.464844 C 6.605469 -45.738281 5.324219 -42.035156 3.960938 -37.085938 L -10.453125 -31.46875 C -11.394531 -31.054688 -10.765625 -29.222656 -9.875 -29.4375 Z M -9.875 -29.4375"/></g><g id="d"><path d="M 8.980469 -31.871094 C 8.628906 -32.164062 8.097656 -32.414062 7.652344 -32.6875 C 8.414062 -35.039062 8.925781 -37.234375 9.144531 -39.082031 C 9.316406 -40.726562 7.730469 -44.59375 5.71875 -43.921875 C 2.035156 -42.757812 -0.558594 -35.0625 4.972656 -31.667969 C 3.316406 -26.363281 1.625 -19.636719 0.300781 -16.488281 C 0.253906 -16.289062 0.558594 -15.417969 1.179688 -15.570312 C 1.359375 -15.609375 1.605469 -15.765625 2.054688 -16.25 C 3.488281 -19.328125 4.382812 -23.882812 6.875 -30.421875 C 7.226562 -30.128906 7.582031 -29.835938 7.734375 -29.589844 C 10.726562 -26.15625 2.703125 -9.609375 4.503906 -2.871094 C 4.992188 -0.816406 6.765625 2.25 9.355469 1.628906 C 9.621094 1.566406 9.777344 1.433594 10.023438 1.28125 C 14.199219 -2.171875 20.308594 -20.804688 21.152344 -22.800781 C 21.269531 -23.109375 20.980469 -23.515625 20.582031 -23.605469 C 20.382812 -23.652344 20.273438 -23.722656 20.09375 -23.679688 C 19.914062 -23.636719 19.847656 -23.527344 19.621094 -23.28125 C 18.230469 -20.023438 11.746094 -1.773438 9.054688 -1.601562 C 9.242188 -7.117188 12.464844 -17.703125 12.882812 -21.480469 C 13.429688 -25.105469 13.304688 -30.359375 8.980469 -31.871094 Z M 6.347656 -40.109375 C 6.796875 -40.21875 7.011719 -39.703125 6.820312 -38.148438 C 6.738281 -36.902344 6.414062 -35.503906 6.023438 -34.371094 C 3.90625 -36.128906 5.546875 -39.917969 6.347656 -40.109375 Z M 6.347656 -40.109375"/></g><g id="e"><path d="M 5.84375 -1.210938 C 12.179688 -2.726562 16.289062 -12.765625 18.5 -18.109375 C 19.257812 -20.082031 19.828125 -21.632812 20.191406 -22.476562 C 20.023438 -23.191406 19.421875 -23.328125 19.066406 -23.246094 C 18.976562 -23.222656 18.886719 -23.203125 18.910156 -23.113281 C 16.511719 -17.347656 11.476562 -5.671875 4.960938 -4.113281 C 2.308594 -3.761719 2.074219 -7.101562 2.71875 -11.125 C 3.421875 -10.539062 4.492188 -10.414062 5.5625 -10.671875 C 8.574219 -11.488281 11.144531 -16.914062 11.644531 -19.957031 L 11.601562 -20.136719 C 11.761719 -20.648438 11.722656 -21.203125 11.75 -21.871094 C 11.601562 -24.855469 8.953125 -26.863281 6.1875 -26.203125 C 5.203125 -25.964844 4.199219 -25.441406 3.296875 -24.472656 C -1.359375 -19.488281 -5.492188 -7.179688 1.289062 -2.101562 C 2.59375 -0.996094 4.148438 -0.804688 5.84375 -1.210938 Z M 8.378906 -22.953125 C 8.734375 -23.039062 9.023438 -23.011719 9.265625 -22.785156 C 9.554688 -22.382812 9.589844 -21.828125 9.582031 -21.070312 C 9.015625 -17.535156 5.875 -12.917969 4.089844 -12.488281 C 3.640625 -12.382812 3.332031 -12.496094 3.046875 -12.902344 C 4.273438 -17.628906 6.683594 -22.546875 8.378906 -22.953125 Z M 8.378906 -22.953125"/></g><clipPath id="f"><path d="M 67 94 L 177 94 L 177 128 L 67 128 Z M 67 94"/></clipPath><clipPath id="g"><path d="M 74.195312 79.242188 L 176.503906 94.519531 L 169.308594 142.710938 L 66.996094 127.433594 Z M 74.195312 79.242188"/></clipPath><clipPath id="h"><path d="M 74.195312 79.242188 L 176.503906 94.519531 L 169.308594 142.710938 L 66.996094 127.433594 Z M 74.195312 79.242188"/></clipPath><clipPath id="i"><path d="M 47.484375 16.5625 L 101.453125 16.5625 L 101.453125 64.535156 L 47.484375 64.535156 Z M 47.484375 16.5625"/></clipPath></defs><g fill="#232526"><use x="65.163" y="109.666" xmlns:xlink="http://www.w3.org/1999/xlink" xlink:href="#a" xlink:type="simple" xlink:actuate="onLoad" xlink:show="embed"/></g><g fill="#232526"><use x="102.108" y="100.827" xmlns:xlink="http://www.w3.org/1999/xlink" xlink:href="#b" xlink:type="simple" xlink:actuate="onLoad" xlink:show="embed"/></g><g fill="#232526"><use x="124.774" y="95.403" xmlns:xlink="http://www.w3.org/1999/xlink" xlink:href="#c" xlink:type="simple" xlink:actuate="onLoad" xlink:show="embed"/></g><g fill="#232526"><use x="134.322" y="93.119" xmlns:xlink="http://www.w3.org/1999/xlink" xlink:href="#d" xlink:type="simple" xlink:actuate="onLoad" xlink:show="embed"/></g><g fill="#232526"><use x="152.705" y="88.72" xmlns:xlink="http://www.w3.org/1999/xlink" xlink:href="#e" xlink:type="simple" xlink:actuate="onLoad" xlink:show="embed"/></g><g clip-path="url(#f)"><g clip-path="url(#g)"><g clip-path="url(#h)"><path fill="#232526" d="M 67.679688 124.785156 C 69.832031 122.054688 154.46875 89.171875 176.429688 95.023438 C 153.863281 96.742188 97.460938 116.269531 79.722656 125.878906 C 80.941406 125.949219 82.570312 125.863281 84.8125 125.535156 C 84.140625 126.691406 77.886719 127.601562 75.128906 127.707031 C 70.683594 127.996094 65.777344 127.199219 67.679688 124.796875 Z M 67.679688 124.785156"/></g></g></g><g clip-path="url(#i)"><path fill="#E8862A" d="M 56.101562 54.832031 L 63.542969 64.535156 C 63.542969 64.535156 70.324219 49.636719 86.519531 44.511719 C 86.519531 44.511719 72.046875 47.425781 63.132812 58.832031 L 59.988281 54.75 L 58.839844 53.289062 L 60 51.460938 C 57.183594 51.304688 54.359375 51.40625 52.226562 48.46875 C 50.097656 45.53125 52.945312 37.5625 58.964844 35.609375 C 59.226562 35.519531 59.5 35.453125 59.761719 35.382812 C 59.441406 38.015625 59.078125 41.449219 58.941406 41.800781 C 61.746094 35.03125 73.757812 10.234375 81.882812 28.015625 C 81.882812 28.015625 82.03125 27.367188 82.15625 26.382812 C 90.15625 21.234375 92.242188 27.289062 92.34375 32.550781 C 78.121094 31.210938 68.09375 45.601562 66.714844 47.699219 L 66.703125 47.710938 L 66.667969 47.753906 C 66.585938 47.878906 66.542969 47.949219 66.542969 47.949219 L 67.398438 47.132812 C 76.71875 38.355469 86.019531 36.789062 90.019531 36.539062 L 94.785156 43.207031 C 94.785156 43.207031 75.023438 47.824219 67.613281 64.421875 C 67.613281 64.421875 80.992188 48.457031 101.210938 46.222656 L 94.785156 35.65625 C 98.203125 21.175781 88.378906 18.625 82.691406 21.359375 C 82.441406 21.472656 82.226562 21.539062 82.054688 21.585938 C 81.53125 18.976562 79.980469 16.574219 76.082031 16.5625 C 75.445312 16.5625 74.75 16.617188 73.972656 16.753906 C 64.628906 18.410156 61.6875 27.539062 60.183594 32.414062 C 60.171875 32.449219 60.160156 32.503906 60.148438 32.5625 C 59.714844 32.617188 59.375 32.675781 59.191406 32.695312 C 58.222656 32.820312 57.265625 33.039062 56.308594 33.34375 C 49.023438 35.703125 46.449219 44.082031 48.171875 48.898438 C 49.675781 53.128906 52.457031 54.046875 56.078125 54.820312 Z M 56.101562 54.832031" fill-rule="evenodd"/></g><g fill="#232526"><use x="155.255" y="53.144" xmlns:xlink="http://www.w3.org/1999/xlink" xlink:href="#j" xlink:type="simple" xlink:actuate="onLoad" xlink:show="embed"/></g><g fill="#232526"><use x="164.557" y="52.238" xmlns:xlink="http://www.w3.org/1999/xlink" xlink:href="#k" xlink:type="simple" xlink:actuate="onLoad" xlink:show="embed"/></g><g fill="#232526"><use x="172.77" y="54.539" xmlns:xlink="http://www.w3.org/1999/xlink" xlink:href="#l" xlink:type="simple" xlink:actuate="onLoad" xlink:show="embed"/></g><g fill="#232526"><use x="180.102" y="60.336" xmlns:xlink="http://www.w3.org/1999/xlink" xlink:href="#m" xlink:type="simple" xlink:actuate="onLoad" xlink:show="embed"/></g></svg>